<svg width="512" height="512" viewBox="0 0 512 512" fill="none" xmlns="http://www.w3.org/2000/svg">
  <defs>
    <linearGradient id="wawptn-bg" x1="0" y1="0" x2="512" y2="512" gradientUnits="userSpaceOnUse">
      <stop stop-color="#7C5CFF"/>
      <stop offset="0.55" stop-color="#5B3FE0"/>
      <stop offset="1" stop-color="#2E1F8C"/>
    </linearGradient>
    <radialGradient id="wawptn-glow" cx="0.5" cy="0.42" r="0.55">
      <stop offset="0" stop-color="#A78BFA" stop-opacity="0.45"/>
      <stop offset="1" stop-color="#A78BFA" stop-opacity="0"/>
    </radialGradient>
  </defs>
  <rect width="512" height="512" rx="116" fill="url(#wawptn-bg)"/>
  <rect x="4" y="4" width="504" height="504" rx="112" fill="url(#wawptn-glow)"/>
  <rect x="2" y="2" width="508" height="508" rx="114" stroke="#ffffff" stroke-opacity="0.12" stroke-width="2"/>
  <path fill-rule="evenodd" clip-rule="evenodd" fill="#ffffff" d="M256 180C296 180 330 184 350 196C372 209 384 230 404 286C418 324 410 344 384 342C360 340 340 322 312 306C296 297 280 296 256 296C232 296 216 297 200 306C172 322 152 340 128 342C102 344 94 324 108 286C128 230 140 209 162 196C182 184 216 180 256 180ZM173 220H203V237H220V267H203V284H173V267H156V237H173V220ZM287 278A17 17 0 1 0 321 278A17 17 0 1 0 287 278Z"/>
  <path fill="#FBBF24" d="M319 238A23 23 0 1 0 365 238A23 23 0 1 0 319 238Z"/>
</svg>
